<svg xmlns="http://www.w3.org/2000/svg" xmlns:xlink="http://www.w3.org/1999/xlink" viewBox="0 0 200 200" width="200" height="200">
<g transform="translate(100,100)">
<g fill="#F97316">
<g id="blade"><path d="M -4 -52 C -6 -64, -2 -72, 2 -80 C 6 -76, 8 -72, 6 -64 C 7 -58, 5 -54, 4 -52 C 1 -50, -2 -50, -4 -52 Z"/><path d="M 1 -78 C 3 -75, 3 -72, 1 -69 C 0 -71, 0 -75, 1 -78 Z" fill="#FFFFFF" opacity="0.35"/></g>
<use xlink:href="#blade" transform="rotate(15)"/>
<use xlink:href="#blade" transform="rotate(30)"/>
<use xlink:href="#blade" transform="rotate(45)"/>
<use xlink:href="#blade" transform="rotate(60)"/>
<use xlink:href="#blade" transform="rotate(75)"/>
<use xlink:href="#blade" transform="rotate(90)"/>
<use xlink:href="#blade" transform="rotate(105)"/>
<use xlink:href="#blade" transform="rotate(120)"/>
<use xlink:href="#blade" transform="rotate(135)"/>
<use xlink:href="#blade" transform="rotate(150)"/>
<use xlink:href="#blade" transform="rotate(165)"/>
<use xlink:href="#blade" transform="rotate(180)"/>
<use xlink:href="#blade" transform="rotate(195)"/>
<use xlink:href="#blade" transform="rotate(210)"/>
<use xlink:href="#blade" transform="rotate(225)"/>
<use xlink:href="#blade" transform="rotate(240)"/>
<use xlink:href="#blade" transform="rotate(255)"/>
<use xlink:href="#blade" transform="rotate(270)"/>
<use xlink:href="#blade" transform="rotate(285)"/>
<use xlink:href="#blade" transform="rotate(300)"/>
<use xlink:href="#blade" transform="rotate(315)"/>
<use xlink:href="#blade" transform="rotate(330)"/>
<use xlink:href="#blade" transform="rotate(345)"/>
</g>
<circle cx="0" cy="0" r="48" fill="none" stroke="#F97316" stroke-width="0.6" opacity="0.45"/>
<text x="0" y="14" text-anchor="middle" font-family="Georgia, serif" font-size="58" font-weight="400" fill="#FFFFFF">S</text>
</g>
</svg>
